<svg preserveAspectRatio="none" width="100%" height="100%" overflow="visible" style="display: block;" viewBox="0 0 105.5 47.9396" fill="none" xmlns="http://www.w3.org/2000/svg">
<g id="&#235;&#161;&#156;&#234;&#179;&#160;">
<path id="Vector 7" d="M7.47215 21.2601H9.41059V20.2087L6.94612 18.091L9.81165 16.3506L8.88456 13.2841H12.93L14.6999 10.0519L17.5654 12.3725L20.5152 10.8807L21.5673 13.8858L24.4078 15.3561L26.9645 15.1074L27.4702 14.4444H35.3082L35.9824 15.1074L36.4881 14.693H40.4493L41.7135 15.1074L41.4606 14.693L46.2646 14.693L46.7703 14.4444H54.1869L56.7153 15.6262H60.7608L61.435 15.2947H65.3119L66.1547 14.7146L65.3119 10.8807L70.7901 9.72038L72.6443 3.67033L77.8696 6.48816L80.4827 3.67034L86.2134 8.64298L90.5209 7.33845L89.4252 13.8858L95.1562 17.0351L90.4366 21.5934L92.7121 27.5605L86.2226 28.4722L85.1052 33.9206L79.2899 30.7713L74.4859 34.7494L73.013 33.2008L71.9174 33.3665L69.4733 33.035L68.6305 33.3665H62.1409L61.6352 33.035V33.3665H54.64L54.3029 33.035L54.05 33.3665H44.6107L44.105 33.035L43.9364 33.3665H36.6041L36.1827 33.035L35.8455 33.3665H29.4403L26.9645 33.9206L27.9758 39.059L22.5819 38.8104L20.0535 43.8659L16.7869 40.6908L12.5729 43.0113L11.1402 38.0387L5.83052 37.3757L8.0218 32.4859L4.31348 29.0051L8.24594 25.8076L7.47215 21.2601Z" fill="var(--fill-0, white)"/>
<g id="Group 5">
<g id="Group 2">
<path id="Star 3" d="M81.058 6.8725L83.0306 10.7499L87.3747 10.5175L86.6915 14.8139L90.3426 17.1793L87.2645 20.2535L88.8279 24.3132L84.5307 24.991L83.4093 29.1944L79.5344 27.2169L76.1565 29.9583L74.1839 26.0809L69.8398 26.3133L70.5231 22.0169L66.872 19.6516L69.9501 16.5773L68.3866 12.5176L72.6838 11.8398L73.8052 7.63648L77.6802 9.61394L81.058 6.8725Z" fill="var(--fill-0, #8A01D9)"/>
</g>
<g id="Group 4">
<path id="Star 3_2" d="M20.876 22.1727L21.8108 25.496L25.2278 25.9879L24.0306 29.2259L26.5059 31.6323L23.6342 33.5482L24.2223 36.95L20.7728 36.8121L19.2491 39.9098L16.5395 37.7707L13.486 39.3812L12.5512 36.0579L9.1342 35.566L10.3313 32.328L7.85604 29.9216L10.7278 28.0057L10.1397 24.6039L13.5892 24.7419L15.1129 21.6441L17.8225 23.7832L20.876 22.1727Z" fill="var(--fill-0, #FF00B7)"/>
</g>
<path id="Star 3_3" d="M19.7382 12.6985L20.4946 15.3876L23.2596 15.7857L22.2909 18.4058L24.2938 20.353L21.97 21.9033L22.4459 24.656L19.6547 24.5443L18.4217 27.051L16.2292 25.32L13.7583 26.6232L13.002 23.9341L10.237 23.5361L11.2057 20.916L9.20275 18.9688L11.5265 17.4184L11.0506 14.6658L13.8419 14.7774L15.0748 12.2708L17.2674 14.0017L19.7382 12.6985Z" fill="var(--fill-0, #8A01D9)"/>
<g id="Group 3">
<path id="Vector 6" d="M16.4833 22.1418H13.5917L14.0736 17.4442H27.0857L27.5676 16.5047H34.3146L35.2784 17.4442L35.7604 16.9744H40.5796L42.5073 18.3837V17.4442L45.8808 17.914L47.8085 16.9744H53.5917L56.0013 18.3837H61.7844L62.7483 17.914H67.5676L69.4953 16.9744H76.2422L80.0977 19.793L80.5796 24.0209L79.1338 28.2487L75.2784 30.5975H72.3868L69.4953 30.1277L68.0495 31.0673H63.7121L61.7844 29.44L60.8206 31.0673H56.0013L54.5555 30.1277L53.1097 31.0673H44.917L43.9531 30.1277L43.4712 31.0673H37.2061L36.2423 30.5975L35.2784 31.0673H25.6399L25.158 29.44L24.1941 31.0673H16.4833V22.1418Z" fill="var(--fill-0, white)" stroke="var(--stroke-0, black)" stroke-width="0.970839"/>
<path id="Vector" d="M72.5327 28.2131C71.492 28.2131 70.5522 28.0539 69.7134 27.7355C68.8746 27.4171 68.2105 26.9472 67.7212 26.3258C67.2397 25.6967 66.9989 24.9434 66.9989 24.0657C66.9989 23.1958 67.2436 22.4502 67.7329 21.8289C68.2222 21.2076 68.8824 20.7377 69.7134 20.4192C70.5522 20.093 71.492 19.9299 72.5327 19.9299C73.5657 19.9299 74.4977 20.093 75.3287 20.4192C76.1675 20.7377 76.8277 21.2076 77.3093 21.8289C77.7986 22.4502 78.0432 23.1958 78.0432 24.0657C78.0432 24.9434 77.7986 25.6967 77.3093 26.3258C76.8277 26.9472 76.1675 27.4171 75.3287 27.7355C74.4977 28.0539 73.5657 28.2131 72.5327 28.2131ZM72.5327 27.5258C72.8589 27.5258 73.0997 27.3782 73.255 27.0831C73.3871 26.8579 73.4764 26.4579 73.523 25.8831C73.5463 25.5802 73.5579 24.9744 73.5579 24.0657C73.5579 23.1492 73.5385 22.5007 73.4997 22.1202C73.4764 21.6542 73.3909 21.3008 73.2434 21.06C73.088 20.7649 72.8512 20.6173 72.5327 20.6173C72.2065 20.6173 71.9619 20.7649 71.7988 21.06C71.6667 21.293 71.5813 21.6464 71.5425 22.1202C71.5114 22.524 71.4959 23.1725 71.4959 24.0657C71.4959 25.0754 71.5075 25.6812 71.5308 25.8831C71.5619 26.419 71.6473 26.819 71.7871 27.0831C71.9502 27.3782 72.1988 27.5258 72.5327 27.5258Z" fill="var(--fill-0, black)"/>
<path id="Vector_2" d="M56.8416 19.9999H60.9308V28.155H56.8416V19.9999ZM60.9308 24.0658L62.8414 19.9999H66.9073L64.8685 24.0658L67.4548 28.155H63.3424L60.9308 24.0658Z" fill="var(--fill-0, black)"/>
<path id="Vector_3" d="M50.2916 28.2131C49.2508 28.2131 48.3111 28.0539 47.4723 27.7355C46.6335 27.4171 45.9694 26.9472 45.4801 26.3258C44.9986 25.6967 44.7578 24.9434 44.7578 24.0657C44.7578 23.1958 45.0025 22.4502 45.4918 21.8289C45.9811 21.2076 46.6412 20.7377 47.4723 20.4192C48.3111 20.093 49.2508 19.9299 50.2916 19.9299C51.3246 19.9299 52.2566 20.093 53.0876 20.4192C53.9264 20.7377 54.5866 21.2076 55.0681 21.8289C55.5574 22.4502 55.8021 23.1958 55.8021 24.0657C55.8021 24.9434 55.5574 25.6967 55.0681 26.3258C54.5866 26.9472 53.9264 27.4171 53.0876 27.7355C52.2566 28.0539 51.3246 28.2131 50.2916 28.2131ZM50.2916 27.5258C50.6178 27.5258 50.8586 27.3782 51.0139 27.0831C51.1459 26.8579 51.2352 26.4579 51.2818 25.8831C51.3051 25.5802 51.3168 24.9744 51.3168 24.0657C51.3168 23.1492 51.2974 22.5007 51.2585 22.1202C51.2352 21.6542 51.1498 21.3008 51.0022 21.06C50.8469 20.7649 50.61 20.6173 50.2916 20.6173C49.9654 20.6173 49.7207 20.7649 49.5576 21.06C49.4256 21.293 49.3402 21.6464 49.3013 22.1202C49.2703 22.524 49.2547 23.1725 49.2547 24.0657C49.2547 25.0754 49.2664 25.6812 49.2897 25.8831C49.3207 26.419 49.4062 26.819 49.546 27.0831C49.7091 27.3782 49.9576 27.5258 50.2916 27.5258Z" fill="var(--fill-0, black)"/>
<path id="Vector_4" d="M38.7081 24.4153L36.18 19.9999H40.7469L42.4245 23.3319L44.0555 19.9999H44.9526L42.7856 24.4153V28.155H38.7081V24.4153Z" fill="var(--fill-0, black)"/>
<path id="Vector_5" d="M31.0767 28.2131C30.036 28.2131 29.0962 28.0539 28.2574 27.7355C27.4186 27.4171 26.7545 26.9472 26.2652 26.3258C25.7837 25.6967 25.5429 24.9434 25.5429 24.0657C25.5429 23.1958 25.7876 22.4502 26.2769 21.8289C26.7662 21.2076 27.4263 20.7377 28.2574 20.4192C29.0962 20.093 30.036 19.9299 31.0767 19.9299C32.1097 19.9299 33.0417 20.093 33.8727 20.4192C34.7115 20.7377 35.3717 21.2076 35.8532 21.8289C36.3425 22.4502 36.5872 23.1958 36.5872 24.0657C36.5872 24.9434 36.3425 25.6967 35.8532 26.3258C35.3717 26.9472 34.7115 27.4171 33.8727 27.7355C33.0417 28.0539 32.1097 28.2131 31.0767 28.2131ZM31.0767 27.5258C31.4029 27.5258 31.6437 27.3782 31.799 27.0831C31.931 26.8579 32.0204 26.4579 32.067 25.8831C32.0903 25.5802 32.1019 24.9744 32.1019 24.0657C32.1019 23.1492 32.0825 22.5007 32.0437 22.1202C32.0204 21.6542 31.9349 21.3008 31.7874 21.06C31.632 20.7649 31.3951 20.6173 31.0767 20.6173C30.7505 20.6173 30.5058 20.7649 30.3427 21.06C30.2107 21.293 30.1253 21.6464 30.0864 22.1202C30.0554 22.524 30.0398 23.1725 30.0398 24.0657C30.0398 25.0754 30.0515 25.6812 30.0748 25.8831C30.1059 26.419 30.1913 26.819 30.3311 27.0831C30.4942 27.3782 30.7427 27.5258 31.0767 27.5258Z" fill="var(--fill-0, black)"/>
<path id="Vector_6" d="M19.0848 20.6873H16.0208V19.9999H26.2379V20.6873H23.1623V28.155H19.0848V20.6873Z" fill="var(--fill-0, black)"/>
</g>
</g>
</g>
</svg>
