<svg preserveAspectRatio="none" width="100%" height="100%" overflow="visible" style="display: block;" viewBox="0 0 35 35" fill="none" xmlns="http://www.w3.org/2000/svg">
<g id="icon-park-outline:good-one">
<path id="Vector" d="M26.1858 30.2928L30.1015 16.4386C30.1628 16.2216 30.173 15.9933 30.1312 15.7717C30.0894 15.5501 29.9968 15.3412 29.8606 15.1614C29.7244 14.9816 29.5484 14.8359 29.3464 14.7356C29.1444 14.6354 28.9219 14.5833 28.6964 14.5836H20.3255C20.2055 14.5836 20.0871 14.5565 19.979 14.5044C19.8709 14.4523 19.776 14.3764 19.7012 14.2825C19.6265 14.1886 19.574 14.0791 19.5475 13.962C19.521 13.845 19.5212 13.7235 19.5482 13.6065L19.9128 12.0286C20.2468 10.5812 20.354 9.09008 20.2307 7.60987L20.1636 6.8056C20.0918 5.94277 19.7164 5.13334 19.1042 4.52112C18.544 3.96125 17.7845 3.64656 16.9925 3.64612H16.8175C16.3384 3.64612 15.8973 3.9057 15.6654 4.32424L13.7266 7.81331C12.8574 9.37816 11.5618 10.664 9.99031 11.5211L5.13479 14.168C4.90459 14.2936 4.71252 14.479 4.57881 14.7046C4.4451 14.9302 4.37469 15.1876 4.375 15.4499V29.8961C4.375 30.2829 4.52865 30.6538 4.80214 30.9273C5.07563 31.2008 5.44656 31.3544 5.83333 31.3544H24.7822C25.0997 31.3544 25.4086 31.2506 25.6618 31.059C25.915 30.8674 26.0995 30.5984 26.1858 30.2928Z" fill="var(--fill-0, #8A01D9)" stroke="var(--stroke-0, #8A01D9)" stroke-width="3" stroke-linecap="round" stroke-linejoin="round"/>
</g>
</svg>
