<svg width="731" height="362" viewBox="0 0 731 362" fill="none" xmlns="http://www.w3.org/2000/svg">
<path d="M56.3105 160.216H70.9187V152.292L52.3463 136.333L73.9411 123.217L66.9545 100.108H97.4413L110.779 75.7498L132.374 93.2378L154.604 81.9955L162.533 104.642L183.939 115.722L203.206 113.849L207.017 108.852H266.085L271.166 113.849L274.977 110.726H304.829L314.356 113.849L312.451 110.726L348.654 110.726L352.464 108.852H408.357L427.411 117.758H457.898L462.979 115.26H492.196L498.547 110.888L492.196 81.9955L533.48 73.2514L547.453 27.6577L586.832 48.8931L606.524 27.6577L649.711 65.132L682.172 55.301L673.915 104.642L717.105 128.376L681.537 162.727L698.686 207.696L649.78 214.567L641.36 255.626L597.535 231.893L561.332 261.872L550.232 250.201L541.975 251.451L523.556 248.952L517.205 251.451H468.299L464.488 248.952V251.451H411.771L409.231 248.952L407.325 251.451H336.189L332.379 248.952L331.108 251.451H275.851L272.675 248.952L270.135 251.451H221.864L203.206 255.626L210.828 294.35L170.179 292.476L151.125 330.575L126.507 306.647L94.7503 324.135L83.9529 286.661L43.939 281.664L60.4527 244.814L32.5065 218.582L62.1418 194.486L56.3105 160.216Z" fill="white"/>
<path d="M610.861 51.7904L625.726 81.0111L658.464 79.2596L653.315 111.637L680.83 129.463L657.633 152.631L669.415 183.225L637.031 188.333L628.58 220.01L599.378 205.107L573.922 225.767L559.057 196.546L526.319 198.298L531.468 165.92L503.954 148.094L527.15 124.927L515.368 94.3327L547.752 89.2246L556.203 57.5478L585.405 72.4502L610.861 51.7904Z" fill="#8A01D9"/>
<path d="M157.323 167.089L164.367 192.133L190.118 195.84L181.096 220.242L199.751 238.377L178.109 252.816L182.541 278.452L156.545 277.412L145.062 300.757L124.643 284.636L101.631 296.773L94.5865 271.729L68.8357 268.022L77.8574 243.62L59.2034 225.485L80.8453 211.046L76.4132 185.41L102.409 186.45L113.892 163.105L134.311 179.226L157.323 167.089Z" fill="#FF00B7"/>
<path d="M148.748 95.695L154.448 115.96L175.285 118.96L167.985 138.705L183.079 153.38L165.567 165.063L169.154 185.807L148.119 184.966L138.827 203.856L122.304 190.812L103.683 200.633L97.983 180.367L77.146 177.368L84.4463 157.622L69.3518 142.948L86.8639 131.265L83.2776 110.521L104.313 111.362L113.604 92.4715L130.127 105.516L148.748 95.695Z" fill="#8A01D9"/>
<path d="M124.22 166.859H102.428L106.06 131.457H204.12L207.752 124.377H258.598L265.861 131.457L269.493 127.917H305.812L320.339 138.538V131.457L345.762 134.997L360.289 127.917H403.871L422.031 138.538H465.613L472.876 134.997H509.195L523.722 127.917H574.568L603.623 149.158L607.255 181.019L596.359 212.881L567.304 230.582H545.513L523.722 227.041L512.827 234.122H480.14L465.613 221.858L458.349 234.122H422.031L411.135 227.041L400.24 234.122H338.498L331.235 227.041L327.603 234.122H280.389L273.125 230.582L265.861 234.122H193.225L189.593 221.858L182.329 234.122H124.22V166.859Z" fill="white" stroke="black" stroke-width="7.31632"/>
<path d="M546.612 212.613C538.769 212.613 531.687 211.413 525.366 209.014C519.044 206.614 514.04 203.073 510.353 198.39C506.724 193.649 504.909 187.972 504.909 181.358C504.909 174.803 506.753 169.184 510.44 164.501C514.128 159.819 519.103 156.278 525.366 153.878C531.687 151.42 538.769 150.19 546.612 150.19C554.397 150.19 561.421 151.42 567.683 153.878C574.005 156.278 578.98 159.819 582.609 164.501C586.296 169.184 588.14 174.803 588.14 181.358C588.14 187.972 586.296 193.649 582.609 198.39C578.98 203.073 574.005 206.614 567.683 209.014C561.421 211.413 554.397 212.613 546.612 212.613ZM546.612 207.433C549.071 207.433 550.885 206.321 552.056 204.097C553.051 202.4 553.724 199.385 554.075 195.054C554.251 192.771 554.338 188.206 554.338 181.358C554.338 174.451 554.192 169.564 553.899 166.696C553.724 163.184 553.08 160.521 551.968 158.707C550.797 156.482 549.012 155.37 546.612 155.37C544.154 155.37 542.31 156.482 541.081 158.707C540.086 160.463 539.442 163.126 539.15 166.696C538.916 169.74 538.799 174.627 538.799 181.358C538.799 188.967 538.886 193.532 539.062 195.054C539.296 199.093 539.94 202.107 540.993 204.097C542.223 206.321 544.096 207.433 546.612 207.433Z" fill="black"/>
<path d="M428.363 150.717H459.179V212.174H428.363V150.717ZM459.179 181.358L473.578 150.717H504.219L488.854 181.358L508.345 212.174H477.353L459.179 181.358Z" fill="black"/>
<path d="M379.001 212.613C371.158 212.613 364.076 211.413 357.755 209.014C351.433 206.614 346.429 203.073 342.742 198.39C339.113 193.649 337.298 187.972 337.298 181.358C337.298 174.803 339.142 169.184 342.829 164.501C346.517 159.819 351.492 156.278 357.755 153.878C364.076 151.42 371.158 150.19 379.001 150.19C386.786 150.19 393.81 151.42 400.072 153.878C406.394 156.278 411.369 159.819 414.998 164.501C418.685 169.184 420.529 174.803 420.529 181.358C420.529 187.972 418.685 193.649 414.998 198.39C411.369 203.073 406.394 206.614 400.072 209.014C393.81 211.413 386.786 212.613 379.001 212.613ZM379.001 207.433C381.46 207.433 383.274 206.321 384.445 204.097C385.44 202.4 386.113 199.385 386.464 195.054C386.64 192.771 386.727 188.206 386.727 181.358C386.727 174.451 386.581 169.564 386.288 166.696C386.113 163.184 385.469 160.521 384.357 158.707C383.186 156.482 381.401 155.37 379.001 155.37C376.543 155.37 374.699 156.482 373.47 158.707C372.475 160.463 371.831 163.126 371.539 166.696C371.305 169.74 371.188 174.627 371.188 181.358C371.188 188.967 371.275 193.532 371.451 195.054C371.685 199.093 372.329 202.107 373.382 204.097C374.612 206.321 376.485 207.433 379.001 207.433Z" fill="black"/>
<path d="M291.707 183.991L272.656 150.717H307.071L319.714 175.826L332.006 150.717H338.766L322.436 183.991V212.174H291.707V183.991Z" fill="black"/>
<path d="M234.196 212.613C226.353 212.613 219.271 211.413 212.95 209.014C206.628 206.614 201.624 203.073 197.937 198.39C194.308 193.649 192.493 187.972 192.493 181.358C192.493 174.803 194.337 169.184 198.024 164.501C201.712 159.819 206.687 156.278 212.95 153.878C219.271 151.42 226.353 150.19 234.196 150.19C241.981 150.19 249.005 151.42 255.267 153.878C261.589 156.278 266.564 159.819 270.193 164.501C273.88 169.184 275.724 174.803 275.724 181.358C275.724 187.972 273.88 193.649 270.193 198.39C266.564 203.073 261.589 206.614 255.267 209.014C249.005 211.413 241.981 212.613 234.196 212.613ZM234.196 207.433C236.655 207.433 238.469 206.321 239.64 204.097C240.635 202.4 241.308 199.385 241.659 195.054C241.835 192.771 241.922 188.206 241.922 181.358C241.922 174.451 241.776 169.564 241.483 166.696C241.308 163.184 240.664 160.521 239.552 158.707C238.381 156.482 236.596 155.37 234.196 155.37C231.738 155.37 229.894 156.482 228.665 158.707C227.67 160.463 227.026 163.126 226.734 166.696C226.5 169.74 226.382 174.627 226.382 181.358C226.382 188.967 226.47 193.532 226.646 195.054C226.88 199.093 227.524 202.107 228.577 204.097C229.807 206.321 231.68 207.433 234.196 207.433Z" fill="black"/>
<path d="M143.824 155.897H120.734V150.717H197.731V155.897H174.553V212.174H143.824V155.897Z" fill="black"/>
</svg>
