<svg preserveAspectRatio="none" width="100%" height="100%" overflow="visible" style="display: block;" viewBox="0 0 420.469 418.675" fill="none" xmlns="http://www.w3.org/2000/svg">
<path id="Star 5" d="M210.235 0L235.84 74.1587L286.505 14.2575L283.592 92.6581L352.475 55.1044L321.438 127.159L399.235 117.024L344.264 173.001L420.469 191.654L348.989 223.993L413.31 268.915L334.975 273.249L378.724 338.373L304.114 314.116L321.383 390.646L260.573 341.075L249.031 418.675L210.235 350.484L171.439 418.675L159.896 341.075L99.0862 390.646L116.356 314.116L41.745 338.373L85.4942 273.249L7.15929 268.915L71.4798 223.993L0 191.654L76.2049 173.001L21.2341 117.024L99.0315 127.159L67.9937 55.1044L136.877 92.6581L133.964 14.2575L184.629 74.1587L210.235 0Z" fill="var(--fill-0, #FF00B7)"/>
</svg>
