<svg preserveAspectRatio="none" width="100%" height="100%" overflow="visible" style="display: block;" viewBox="0 0 860.958 865.701" fill="none" xmlns="http://www.w3.org/2000/svg">
<path id="Star 3" d="M430.479 0L464.413 109.991L520.474 9.45883L530.798 124.101L606.535 37.4219L592.798 151.706L684.902 82.6671L647.704 191.597L752.15 143.217L693.117 242.033L805.339 216.425L727.05 300.808L842.144 299.092L748.023 365.354L860.958 387.605L755.117 432.85L860.958 478.095L748.023 500.346L842.144 566.608L727.05 564.892L805.339 649.275L693.117 623.668L752.15 722.484L647.704 674.103L684.902 783.034L592.798 713.995L606.535 828.279L530.798 741.599L520.474 856.242L464.413 755.71L430.479 865.701L396.545 755.71L340.484 856.242L330.161 741.599L254.423 828.279L268.16 713.995L176.056 783.034L213.254 674.103L108.809 722.484L167.842 623.668L55.6198 649.275L133.908 564.892L18.814 566.608L112.936 500.346L0 478.095L105.841 432.85L0 387.605L112.936 365.354L18.814 299.092L133.908 300.808L55.6198 216.425L167.842 242.033L108.809 143.217L213.254 191.597L176.056 82.6671L268.16 151.706L254.423 37.4219L330.161 124.101L340.484 9.45883L396.545 109.991L430.479 0Z" fill="var(--fill-0, #8A01D9)"/>
</svg>
