<svg preserveAspectRatio="none" width="100%" height="100%" overflow="visible" style="display: block;" viewBox="0 0 128.048 127.502" fill="none" xmlns="http://www.w3.org/2000/svg" xmlns:xlink="http://www.w3.org/1999/xlink">
<g id="Star 6">
<path d="M64.0242 0L71.822 22.5841L87.2515 4.34193L86.3644 28.2178L107.342 16.7813L97.8896 38.7245L121.582 35.6382L104.841 52.685L128.048 58.3658L106.28 68.2141L125.868 81.8946L102.012 83.2143L115.335 103.047L92.6138 95.6598L97.873 118.966L79.3542 103.87L75.839 127.502L64.0242 106.735L52.2094 127.502L48.6942 103.87L30.1754 118.966L35.4346 95.6598L12.7129 103.047L26.0362 83.2143L2.18027 81.8946L21.7682 68.2141L0 58.3658L23.2072 52.685L6.46656 35.6382L30.1587 38.7245L20.7066 16.7813L41.684 28.2178L40.7969 4.34193L56.2264 22.5841L64.0242 0Z" fill="var(--fill-0, #8A01D9)"/>
<path d="M64.0242 0L71.822 22.5841L87.2515 4.34193L86.3644 28.2178L107.342 16.7813L97.8896 38.7245L121.582 35.6382L104.841 52.685L128.048 58.3658L106.28 68.2141L125.868 81.8946L102.012 83.2143L115.335 103.047L92.6138 95.6598L97.873 118.966L79.3542 103.87L75.839 127.502L64.0242 106.735L52.2094 127.502L48.6942 103.87L30.1754 118.966L35.4346 95.6598L12.7129 103.047L26.0362 83.2143L2.18027 81.8946L21.7682 68.2141L0 58.3658L23.2072 52.685L6.46656 35.6382L30.1587 38.7245L20.7066 16.7813L41.684 28.2178L40.7969 4.34193L56.2264 22.5841L64.0242 0Z"/>
</g>
</svg>
