<svg preserveAspectRatio="none" width="100%" height="100%" overflow="visible" style="display: block;" viewBox="0 0 823.33 865.701" fill="none" xmlns="http://www.w3.org/2000/svg" xmlns:xlink="http://www.w3.org/1999/xlink">
<g id="Star 3">
<path d="M411.665 0L466.506 264.068L666.088 82.6671L555.24 328.537L823.33 299.092L589.134 432.85L823.33 566.608L555.24 537.164L666.088 783.034L466.506 601.633L411.665 865.701L356.824 601.633L157.242 783.034L268.09 537.164L0 566.608L234.196 432.85L0 299.092L268.09 328.537L157.242 82.6671L356.824 264.068L411.665 0Z" fill="var(--fill-0, #8A01D9)"/>
<path d="M411.665 0L466.506 264.068L666.088 82.6671L555.24 328.537L823.33 299.092L589.134 432.85L823.33 566.608L555.24 537.164L666.088 783.034L466.506 601.633L411.665 865.701L356.824 601.633L157.242 783.034L268.09 537.164L0 566.608L234.196 432.85L0 299.092L268.09 328.537L157.242 82.6671L356.824 264.068L411.665 0Z"/>
</g>
</svg>
